<svg xmlns="http://www.w3.org/2000/svg" width="358.667" height="358.667"><g clip-path="url(#clipPath16)" transform="matrix(1.33333 0 0 -1.33333 0 358.667)"><path d="M0 0c2.423-8.486 1.42-17.182 1.429-25.79.071-68.831.031-137.662.047-206.494.002-6.679-2.807-11.597-8.794-14.607-1.665-.837-3.473-1.173-5.353-1.173-75.586.008-151.172.007-226.758.008-3.8 0-7.018 1.389-9.713 4.057-.71.704-1.496 1.331-2.247 1.992-2.657 3.695-2.901 8-2.902 12.288-.03 73.275-.021 146.551-.023 219.826 0 .925-.029 1.85-.043 2.775a.72.72 0 0 1-.016.431c.301 2.267.351 4.592 1.527 6.658 2.327 4.223 5.867 6.801 10.623 7.508 2.315.344 4.685.438 7.03.439 71.75.021 143.5.018 215.251.018 4.926 0 9.871.108 14.4-2.345l.92-.632c1.633-.68 2.615-2.06 3.64-3.394L0 0" style="fill:#13282c;fill-opacity:1;fill-rule:nonzero;stroke:none" transform="translate(261.048 254.453)"/></g></svg>
