<svg xmlns="http://www.w3.org/2000/svg" width="358.667" height="358.667"><g clip-path="url(#clipPath16)" transform="matrix(1.33333 0 0 -1.33333 0 358.667)"><path d="M0 0c-6.038-29.73-12.003-58.947-17.866-88.185-.625-3.117-2.286-4.912-5.166-5.85-2.578-.839-5.24-1.216-7.926-1.362-7.307-.397-14.619-.698-21.864.734-.895.177-1.774.502-2.618.857-2.038.857-2.889 2.211-2.39 4.581 3.03 14.385 5.941 28.795 8.913 43.192 6.964 33.728 13.949 67.452 20.893 101.185.677 3.291 1.059 6.641 1.696 9.942.786 4.068.84 4.057 4.807 4.401 3.587.31 5.411 2.261 5.157 5.755-.152 2.097-1.149 3.691-3.504 3.814-2.53.131-3.596 1.49-3.512 3.908.279 8.07 2.093 9.106 7.957 10.49.734.174 1.474.41 2.218.438 3.177.119 5.658.851 7.127 4.296.989 2.318 3.802 2.939 6.328 2.93 2.399-.008 3.899-1.521 4.216-4.043.214-1.704.822-2.492 2.778-2.524 2.75-.044 5.541-.329 8.182-1.29 2.854-1.04 3.567-2.176 3.061-5.156-.364-2.152-.84-4.285-1.314-6.417-.2-.9-.389-1.446.96-1.661 2.404-.385 4.932-.985 5.366-4.021.405-2.842-1.274-5.871-4.521-6.371-4.505-.694-5.07-3.506-5.785-7.12C9.721 44.972 6.009 27.468 2.39 9.946c-.05-.24-.006-.499-.006-.919 1.035.369 1.517 1.258 2.133 1.939 22.525 24.891 45.153 49.69 67.457 74.778 4.823 5.425 10.154 8.441 17.331 8.727 7.736.31 15.471.799 23.123-.72 5.786-1.148 7.314-4.695 4.299-9.779-2.203-3.713-5.222-6.797-8.219-9.867C86.523 51.589 64.541 29.071 42.5 6.61c-1.326-1.352-1.554-2.306-.701-4.047 13.159-26.83 26.243-53.698 39.326-80.565 1.437-2.949 2.743-5.973 2.985-9.297.266-3.656-.961-5.46-4.422-6.673-2.638-.924-5.401-1.241-8.17-1.403-7.73-.452-15.45-.625-23.141.648-3.451.571-5.62 2.352-7.108 5.598C27.864-59.91 14.343-30.743.853-1.562.684-1.196.468-.853 0 0" style="fill:#e0e0e0;fill-opacity:1;fill-rule:nonzero;stroke:none" transform="translate(105.256 136.917)"/><path d="M0 0c5.884 0 11.747-.021 17.609.02 1.005.007 1.266-.652 1.59-1.318 5.361-11.028 10.722-22.056 16.054-33.098.398-.823.606-1.744.847-2.635.553-2.045-.355-3.349-2.296-3.748-4.575-.94-9.186-.883-13.783-.092-1.142.197-1.95.88-2.447 1.965C11.723-26.161 5.859-13.421.008-.677-.054-.542 0-.354 0 0" style="fill:#e0e0e0;fill-opacity:1;fill-rule:nonzero;stroke:none" transform="translate(177.15 82.657)"/></g></svg>